HIERARCHY
ROOT Hips
{
	OFFSET 0.000000 8.830580 0.000000
	CHANNELS 6 Xposition Yposition Zposition Zrotation Yrotation Xrotation 
	JOINT Spine
	{
		OFFSET 0.000000 0.010000 0.000000
		CHANNELS 3 Zrotation Yrotation Xrotation
		JOINT Spine1
		{
			OFFSET 0.000000 2.459130 0.000000
			CHANNELS 3 Zrotation Yrotation Xrotation
			JOINT Neck
			{
				OFFSET 0.000000 2.484630 0.000000
				CHANNELS 3 Zrotation Yrotation Xrotation
				JOINT Head_virtual
				{
					OFFSET 0.000000 0.000000 0.000000
					CHANNELS 3 Zrotation Yrotation Xrotation
					JOINT Head
					{
						OFFSET 0.000000 0.927525 0.000000
						CHANNELS 3 Zrotation Yrotation Xrotation
						End Site
						{
							OFFSET 0.000000 0.000000 0.000000
						}
					}
				}
				JOINT LeftUpArm_virtual
				{
					OFFSET 0.000000 0.000000 0.000000
					CHANNELS 3 Zrotation Yrotation Xrotation
					JOINT LeftUpArm
					{
						OFFSET 1.248820 0.000000 0.000000
						CHANNELS 3 Zrotation Yrotation Xrotation
						JOINT LeftForeArm
						{
							OFFSET 2.597580 0.000000 0.000000
							CHANNELS 3 Zrotation Yrotation Xrotation
							JOINT LeftHand
							{
								OFFSET 2.455420 0.000000 0.000000
								CHANNELS 3 Zrotation Yrotation Xrotation
								End Site
								{
									OFFSET 0.000000 0.000000 0.000000
								}
							}
						}
					}
				}
				JOINT RightUpArm_virtual
				{
					OFFSET -0.000000 -0.000000 -0.000000
					CHANNELS 3 Zrotation Yrotation Xrotation
					JOINT RightUpArm
					{
						OFFSET -1.248820 -0.000000 -0.000000
						CHANNELS 3 Zrotation Yrotation Xrotation
						JOINT RightForeArm
						{
							OFFSET -2.597580 -0.000000 -0.000000
							CHANNELS 3 Zrotation Yrotation Xrotation
							JOINT RightHand
							{
								OFFSET -2.455420 -0.000000 -0.000000
								CHANNELS 3 Zrotation Yrotation Xrotation
								End Site
								{
									OFFSET 0.000000 0.000000 0.000000
								}
							}
						}
					}
				}
			}
		}
	}
	JOINT LeftUpLeg
	{
		OFFSET 1.271939 0.000000 0.000000
		CHANNELS 3 Zrotation Yrotation Xrotation
		JOINT LeftLowLeg
		{
			OFFSET 0.000000 -4.342910 0.000000
			CHANNELS 3 Zrotation Yrotation Xrotation
			JOINT LeftFoot
			{
				OFFSET 0.000000 -4.487670 0.000000
				CHANNELS 3 Zrotation Yrotation Xrotation
				JOINT LeftToeBase
				{
					OFFSET 0.000000 0.000000 1.515070
					CHANNELS 3 Zrotation Yrotation Xrotation
					End Site
					{
						OFFSET 0.000000 0.000000 0.000000
					}
				}
			}
		}
	}
	JOINT RightUpLeg
	{
		OFFSET -1.271939 0.000000 0.000000
		CHANNELS 3 Zrotation Yrotation Xrotation
		JOINT RightLowLeg
		{
			OFFSET 0.000000 -4.342910 0.000000
			CHANNELS 3 Zrotation Yrotation Xrotation
			JOINT RightFoot
			{
				OFFSET 0.000000 -4.487670 0.000000
				CHANNELS 3 Zrotation Yrotation Xrotation
				JOINT RightToeBase
				{
					OFFSET 0.000000 0.000000 1.515070
					CHANNELS 3 Zrotation Yrotation Xrotation
					End Site
					{
						OFFSET 0.000000 0.000000 0.000000
					}
				}
			}
		}
	}
}
MOTION
Frames: 14
Frame Time: 0.041667
-19.505045 8.245375 43.500078 -175.533440 3.024904 -161.101617 5.940440 0.269182 24.457288 -1.559617 -0.738856 9.276408 0.000000 0.000000 0.000000 -2.619978 6.701858 -29.094825 2.231414 1.355338 -61.495503 -16.152000 0.031987 9.157590 -31.208900 -29.742399 -2.790110 -180.000000 -87.586800 180.000000 33.619301 -4.220560 14.805100 20.510500 1.534850 9.034380 26.199200 37.634800 -7.988720 0.000000 88.319801 0.000000 -36.846901 18.784800 15.918800 5.050499 5.608365 -54.743547 0.000000 0.000000 47.846500 8.495142 -5.874652 1.745570 0.000000 0.000000 -40.619301 2.778936 2.390253 -53.432251 0.000000 0.000000 45.513100 12.128259 -2.949477 4.042263 0.000000 0.000000 -28.115300 
-19.478816 8.328865 43.426658 -175.625697 2.891438 -161.655378 6.025792 0.125281 23.441559 -1.565885 -0.798379 9.461387 0.000000 0.000000 0.000000 -2.146723 6.750815 -28.972644 1.985100 1.369077 -60.585596 -15.950900 -0.191623 9.028500 -31.201300 -30.634199 -2.270220 180.000000 -86.157204 -180.000000 34.496101 -4.226230 13.999000 20.239599 1.666060 8.958530 25.841000 38.682999 -8.125270 0.000000 89.065399 0.000000 -38.566799 21.010700 15.819100 5.188048 5.529560 -52.589821 0.000000 0.000000 45.783600 8.310540 -6.127469 2.357476 0.000000 0.000000 -40.631901 2.836684 2.384986 -51.380385 0.000000 0.000000 43.693501 11.766029 -3.281628 4.660459 0.000000 0.000000 -28.317600 
-19.451204 8.408741 43.350055 -175.731783 2.809607 -162.305165 6.069959 0.030352 22.415304 -1.510671 -0.843309 9.563775 0.000000 0.000000 0.000000 -1.876478 6.764007 -28.694938 1.938212 1.306660 -59.642830 -15.695000 -0.469264 8.874840 -31.397200 -31.682899 -1.608610 -180.000000 -85.091003 180.000000 35.189499 -4.561480 13.792900 19.918900 1.800100 8.699300 25.794201 39.438400 -7.622740 0.000000 89.603996 0.000000 -39.499001 22.315901 16.171200 5.305811 5.460406 -50.320774 0.000000 0.000000 43.714500 8.174663 -6.269889 2.969276 0.000000 0.000000 -40.729200 2.873631 2.426724 -49.260819 0.000000 0.000000 41.913700 11.496298 -3.558450 5.280990 0.000000 0.000000 -28.544100 
-19.421846 8.486066 43.268365 -175.835136 2.716819 -162.981585 6.085105 -0.086956 21.278325 -1.346084 -0.924421 9.661280 0.000000 0.000000 0.000000 -1.876614 6.712593 -28.213979 2.058722 1.165432 -59.038450 -15.098500 -1.230100 6.942460 -33.192501 -31.229099 0.634572 -180.000000 -84.055801 180.000000 35.489799 -4.937740 13.583400 19.570900 1.937060 8.557910 25.678900 40.338100 -7.130740 0.000000 89.684601 0.000000 -39.765202 23.401400 17.611200 5.465650 5.368263 -48.012068 0.000000 0.000000 41.686298 7.964034 -6.467767 3.530398 0.000000 0.000000 -40.647900 2.994450 2.377825 -47.099862 0.000000 0.000000 40.160702 10.991190 -3.856704 5.853892 0.000000 0.000000 -28.699000 
-19.391433 8.560299 43.183428 -175.897649 2.657722 -163.720613 6.099607 -0.189436 20.132016 -1.152794 -0.994085 9.719997 0.000000 0.000000 0.000000 -1.993981 6.697983 -27.668288 2.230100 1.045545 -58.568206 -14.821200 -1.737220 6.278900 -33.929401 -31.895399 1.712200 180.000000 -83.511200 -180.000000 35.782902 -5.296870 12.990000 19.212799 2.028330 8.465410 25.566500 41.237598 -6.472720 0.000000 89.204399 0.000000 -39.411800 24.065500 18.055500 5.670328 5.293442 -45.636691 0.000000 0.000000 39.688099 7.802433 -6.616100 4.072567 0.000000 0.000000 -40.562599 3.179320 2.333127 -44.863551 0.000000 0.000000 38.427502 10.385465 -4.206205 6.407651 0.000000 0.000000 -28.678700 
-19.359632 8.630911 43.096438 -175.932006 2.600838 -164.449254 6.157248 -0.302408 18.877173 -1.062236 -1.053674 9.842421 0.000000 0.000000 0.000000 -1.892547 6.704889 -27.380388 2.204642 0.984610 -57.663362 -14.658500 -2.030660 6.513180 -33.963001 -33.425701 1.969320 -180.000000 -83.333504 180.000000 35.870201 -5.213880 12.401400 18.859699 2.075440 8.398770 25.650400 42.159500 -5.887190 0.000000 88.195801 0.000000 -38.210300 24.820601 18.400000 5.875427 5.271201 -43.285391 0.000000 0.000000 37.718399 7.662034 -6.754599 4.584690 0.000000 0.000000 -40.599001 3.309394 2.440842 -42.581152 0.000000 0.000000 36.607601 9.998338 -4.558587 6.885256 0.000000 0.000000 -28.671900 
-19.328308 8.698950 43.003877 -175.937249 2.433237 -165.305551 6.319404 -0.526189 17.604166 -1.002000 -1.168805 10.040811 0.000000 0.000000 0.000000 -1.930008 6.707832 -27.105850 2.215101 0.903779 -56.592005 -14.362700 -2.645140 6.182810 -34.601601 -34.258301 2.666980 -180.000000 -83.468102 180.000000 35.868099 -5.219430 11.634800 18.944599 2.201660 8.524120 24.820000 43.390900 -6.298550 0.000000 86.741798 0.000000 -35.060600 24.537399 18.563999 6.170424 5.086142 -40.772865 0.000000 0.000000 35.685001 7.460231 -6.879794 5.072176 0.000000 0.000000 -40.588301 3.597831 2.216164 -40.135725 0.000000 0.000000 34.786499 9.507753 -4.710505 7.376905 0.000000 0.000000 -28.771300 
-19.298789 8.762779 42.905528 -175.880243 2.125086 -166.298211 6.667450 -0.940235 16.360064 -1.136667 -1.390279 10.189832 0.000000 0.000000 0.000000 -1.869442 6.816309 -26.497812 2.119927 0.910606 -55.503330 -14.175700 -3.034670 6.446920 -34.811600 -35.574799 2.971920 -180.000000 -84.258003 180.000000 36.577301 -4.790980 9.489240 18.726400 2.466120 8.396350 25.469900 43.949501 -5.536420 0.000000 85.392303 0.000000 -31.768600 23.070900 17.586500 6.553397 4.744824 -38.210609 0.000000 0.000000 33.802799 7.299211 -6.964827 5.502478 0.000000 0.000000 -40.580900 3.987763 1.773504 -37.500256 0.000000 0.000000 32.973900 9.088823 -4.749129 7.808414 0.000000 0.000000 -28.891600 
-19.269748 8.817892 42.819429 -176.031712 2.250917 -166.459207 6.649604 -1.040248 14.634466 -1.173443 -1.481460 9.809351 0.000000 0.000000 0.000000 -1.966660 6.929570 -25.748776 2.106742 0.858905 -53.858614 -13.781700 -3.132140 6.658440 -35.514400 -36.956402 3.591770 -180.000000 -85.369003 180.000000 36.692402 -3.312130 6.355860 18.211300 2.602830 8.304380 26.731001 44.383301 -4.420640 0.000000 84.256500 0.000000 -28.394800 20.339001 14.790100 6.546030 4.881886 -36.551742 0.000000 0.000000 32.083000 7.270209 -7.066495 5.992080 0.000000 0.000000 -40.721701 4.044794 1.697367 -36.021177 0.000000 0.000000 31.488199 8.647220 -4.700020 8.277197 0.000000 0.000000 -28.955400 
-19.236074 8.865961 42.735767 -176.213150 2.624123 -166.480588 6.356509 -0.932755 12.863934 -0.900069 -1.473387 9.268741 0.000000 0.000000 0.000000 -2.284152 7.010832 -24.755839 2.334680 0.676266 -52.119628 -13.295700 -3.339760 6.722980 -36.667000 -37.846802 4.457100 180.000000 -86.301003 -180.000000 36.421700 -1.729320 3.745930 17.572201 2.647900 8.296530 28.122601 44.585602 -3.081630 0.000000 83.524902 0.000000 -26.028400 16.741301 10.536100 6.440890 5.387207 -35.046016 0.000000 0.000000 30.463400 7.069525 -7.260135 6.384154 0.000000 0.000000 -40.732000 4.019892 1.921866 -34.848438 0.000000 0.000000 30.235300 8.234394 -4.700819 8.694682 0.000000 0.000000 -29.144600 
-19.203836 8.914474 42.625493 -175.975153 2.243218 -167.989003 6.727418 -1.406960 11.934351 -0.646321 -1.797604 9.452284 0.000000 0.000000 0.000000 -2.900117 7.175384 -23.060178 2.845441 0.474079 -51.589674 -13.363100 -3.529240 6.573180 -37.237801 -38.240002 5.359060 -180.000000 -86.875397 180.000000 36.079601 -0.695331 1.789810 17.423700 2.826050 8.021380 29.069599 44.194302 -1.476930 0.000000 83.321403 0.000000 -24.474100 14.003300 6.294570 7.061015 5.005646 -32.163212 0.000000 0.000000 29.040199 6.946970 -7.370938 6.533029 0.000000 0.000000 -40.711700 4.657076 1.208132 -31.660953 0.000000 0.000000 28.493200 7.807780 -4.540792 8.991124 0.000000 0.000000 -29.260300 
-19.172201 8.955503 42.529975 -175.962514 2.301420 -168.821483 6.670195 -1.589991 10.754090 -0.238292 -1.973608 9.269387 0.000000 0.000000 0.000000 -3.555456 7.324956 -21.666978 3.388185 0.198375 -50.527917 -13.156200 -3.519680 6.615360 -38.203300 -38.583500 6.294310 -180.000000 -86.957100 180.000000 35.605000 0.077608 0.265127 17.069901 2.708240 7.754390 30.191601 43.820599 0.487684 0.000000 83.708199 0.000000 -24.095400 12.368800 2.566790 7.344723 4.936499 -29.983847 0.000000 0.000000 27.681400 6.811207 -7.354095 6.766589 0.000000 0.000000 -40.714100 4.883441 1.086284 -29.519130 0.000000 0.000000 27.154600 7.462580 -4.506711 9.271096 0.000000 0.000000 -29.322800 
-19.141135 8.990904 42.431160 -175.961821 2.266449 -169.554642 6.756327 -1.801238 9.430722 -0.081136 -2.145390 9.212874 0.000000 0.000000 0.000000 -3.829593 7.450280 -20.217100 3.629202 0.057704 -49.660835 -12.842400 -3.512360 6.647200 -39.204498 -38.602100 7.250340 180.000000 -86.304001 -180.000000 34.888500 1.483880 -1.544110 16.851200 2.462450 7.316160 31.338699 43.014999 2.610010 0.000000 84.922699 0.000000 -24.094101 11.235600 -0.000501 7.666174 4.617055 -27.951914 0.000000 0.000000 26.409300 6.642312 -7.231383 6.909504 0.000000 0.000000 -40.642700 5.093853 0.924001 -27.512881 0.000000 0.000000 25.939699 7.150297 -4.501353 9.383093 0.000000 0.000000 -29.505600 
-19.110885 9.023346 42.334400 -176.009418 2.354288 -170.296266 6.672281 -2.016305 8.240018 0.243314 -2.364446 9.149196 0.000000 0.000000 0.000000 -4.183064 7.569833 -18.746231 3.632864 -0.035866 -49.016912 -12.798500 -3.214320 6.596030 -40.001801 -38.422100 8.318120 180.000000 -85.262703 -180.000000 34.769299 2.502190 -3.377050 16.776600 2.281990 7.351550 31.753599 42.294300 3.879520 0.000000 86.749001 0.000000 -23.694799 10.043500 -1.841350 7.905915 4.372779 -25.928761 0.000000 0.000000 25.188000 6.455737 -7.044423 7.099041 0.000000 0.000000 -40.606899 5.216115 0.925584 -25.588779 0.000000 0.000000 24.846300 6.864910 -4.552057 9.478212 0.000000 0.000000 -29.555500 
